<svg width="255" height="93" viewBox="0 0 255 93" fill="none" xmlns="http://www.w3.org/2000/svg">
<path d="M25.875 74.6719C21.5625 74.6719 17.8281 73.8438 14.6719 72.1875C11.5156 70.5625 8.92188 68.375 6.89062 65.625C4.85938 62.8438 3.34375 59.7344 2.34375 56.2969C1.34375 52.8594 0.84375 49.3281 0.84375 45.7031C0.84375 41.9844 1.35938 38.0625 2.39062 33.9375C3.45312 29.8125 5.04688 25.7969 7.17188 21.8906C9.32812 17.9844 12.0312 14.4531 15.2812 11.2969C18.5312 8.10938 22.3594 5.57812 26.7656 3.70312C31.2031 1.79687 36.2188 0.84375 41.8125 0.84375C45 0.84375 47.8594 1.60937 50.3906 3.14062C52.9219 4.64062 54.9219 6.60938 56.3906 9.04688C57.8906 11.4844 58.6406 14.0625 58.6406 16.7812C58.6406 17.5937 58.5156 18.3125 58.2656 18.9375C58.0469 19.5313 57.5938 20 56.9062 20.3438C54.875 21.375 52.5 22.6562 49.7812 24.1875C47.0625 25.6875 44.3438 27.1875 41.625 28.6875C38.9062 30.1562 36.5156 31.375 34.4531 32.3438C34.0781 32.5312 33.7188 32.625 33.375 32.625C32.875 32.625 32.4688 32.4375 32.1562 32.0625C31.875 31.6562 31.7344 31.2031 31.7344 30.7031C31.7344 29.9219 32.2969 29.1406 33.4219 28.3594C34.5469 27.5781 35.9219 26.7969 37.5469 26.0156C39.2031 25.2031 40.8594 24.3906 42.5156 23.5781C44.1719 22.7344 45.5625 21.8594 46.6875 20.9531C47.8125 20.0469 48.375 19.1094 48.375 18.1406C48.3438 18.1406 48.2031 17.5156 47.9531 16.2656C47.7031 14.9844 47.2812 13.5156 46.6875 11.8594C46.0938 10.2031 45.2812 8.75 44.25 7.5C43.25 6.21875 41.9688 5.57812 40.4062 5.57812C35.9688 5.73437 31.9375 6.90625 28.3125 9.09375C24.6875 11.25 21.5781 14.0625 18.9844 17.5312C16.3906 21 14.3906 24.7969 12.9844 28.9219C11.6094 33.0156 10.9219 37.0781 10.9219 41.1094C10.9219 46.7344 11.8125 51.4062 13.5938 55.125C15.375 58.8125 17.8125 61.5781 20.9062 63.4219C24 65.2344 27.5156 66.1406 31.4531 66.1406C36.2031 66.1406 41.2969 64.8594 46.7344 62.2969C52.2031 59.7031 57.5469 55.8906 62.7656 50.8594V56.0625C56.7344 61.7812 50.5938 66.3125 44.3438 69.6562C38.0938 73 31.9375 74.6719 25.875 74.6719ZM63.4688 73.3594C61.5 73.3594 59.9844 72.7031 58.9219 71.3906C57.8906 70.0781 57.1875 68.5 56.8125 66.6562C56.4375 64.8125 56.25 63.0781 56.25 61.4531C56.25 57.9844 57.0625 54.5469 58.6875 51.1406C60.3438 47.7344 62.6094 44.6406 65.4844 41.8594C68.3594 39.0469 71.6562 36.8125 75.375 35.1562C79.125 33.4688 83.0781 32.625 87.2344 32.625C88.6406 32.625 89.9688 32.7812 91.2188 33.0938C92.4688 33.375 93.7656 33.7344 95.1094 34.1719C95.0469 34.5469 94.8281 35.5625 94.4531 37.2188C94.0781 38.8438 93.6406 40.7969 93.1406 43.0781C92.6406 45.3594 92.1406 47.6719 91.6406 50.0156C91.1719 52.3594 90.7656 54.4688 90.4219 56.3438C90.1094 58.1875 89.9531 59.5 89.9531 60.2812C89.9531 62.2812 90.4219 63.2812 91.3594 63.2812C92.2031 63.2812 93.3438 62.7031 94.7812 61.5469C96.25 60.3906 97.9219 58.8594 99.7969 56.9531C101.672 55.0469 103.641 52.9531 105.703 50.6719V56.0625C104.953 56.9688 103.859 58.1406 102.422 59.5781C101.016 60.9844 99.4219 62.4844 97.6406 64.0781C95.8594 65.6719 94.0625 67.1719 92.25 68.5781C90.4688 69.9844 88.7969 71.125 87.2344 72C85.7031 72.9062 84.4688 73.3594 83.5312 73.3594C82.125 73.3594 81.1719 72.7344 80.6719 71.4844C80.2031 70.2031 79.9688 68.7812 79.9688 67.2188C79.9688 66.4062 80 65.6094 80.0625 64.8281C80.1562 64.0156 80.25 63.2969 80.3438 62.6719C79.0625 64.3281 77.5312 65.9844 75.75 67.6406C73.9688 69.2969 72.0312 70.6719 69.9375 71.7656C67.8438 72.8281 65.6875 73.3594 63.4688 73.3594ZM70.8281 65.8594C71.7969 65.8594 72.8906 65.5 74.1094 64.7812C75.3594 64.0625 76.5938 63.1875 77.8125 62.1562C79.0312 61.125 80.0625 60.1562 80.9062 59.25L86.2969 36.1875C83.6719 36.1875 81.1562 36.8906 78.75 38.2969C76.3438 39.7031 74.2031 41.5469 72.3281 43.8281C70.4531 46.0781 68.9688 48.5312 67.875 51.1875C66.7812 53.8125 66.2344 56.3594 66.2344 58.8281C66.2344 60.6406 66.5625 62.2656 67.2188 63.7031C67.9062 65.1406 69.1094 65.8594 70.8281 65.8594ZM106.688 73.3594C104.469 73.3594 102.984 72.5938 102.234 71.0625C101.484 69.5 101.109 67.6719 101.109 65.5781C101.109 63.8281 101.266 62.125 101.578 60.4688C101.891 58.7812 102.141 57.4375 102.328 56.4375C102.672 54.7188 102.953 53.3281 103.172 52.2656C103.422 51.2031 103.688 50.1406 103.969 49.0781C104.25 47.9844 104.609 46.5625 105.047 44.8125C105.484 43.0625 106.062 40.6406 106.781 37.5469C105.812 37.5469 104.844 37.5 103.875 37.4062C102.906 37.3125 102.422 36.6875 102.422 35.5312C102.422 35.1875 102.484 34.9219 102.609 34.7344C102.766 34.5156 103.281 34.3594 104.156 34.2656L108.094 33.8906C109.219 30.2031 110.391 26.8438 111.609 23.8125C112.828 20.7812 114.391 18.3594 116.297 16.5469C118.203 14.7344 120.75 13.8281 123.938 13.8281L124.125 14.0156C124.125 14.1406 123.875 14.9062 123.375 16.3125C122.875 17.7188 122.25 19.4687 121.5 21.5625C120.781 23.6563 120.047 25.8125 119.297 28.0312C118.578 30.25 117.984 32.2031 117.516 33.8906L131.812 33.2344L130.781 34.9219C130.438 35.5781 129.422 36.0625 127.734 36.375C126.078 36.6875 124.219 36.8906 122.156 36.9844C120.094 37.0469 118.297 37.0781 116.766 37.0781C116.734 37.0781 116.531 37.7812 116.156 39.1875C115.781 40.5625 115.312 42.3125 114.75 44.4375C114.188 46.5625 113.625 48.7656 113.062 51.0469C112.5 53.2969 112.031 55.3438 111.656 57.1875C111.281 59.0312 111.094 60.3281 111.094 61.0781C111.094 62.2344 111.203 63.25 111.422 64.125C111.641 64.9688 112.297 65.3906 113.391 65.3906C113.984 65.3906 115.125 64.7656 116.812 63.5156C118.5 62.2656 120.594 60.5469 123.094 58.3594C125.594 56.1406 128.312 53.6406 131.25 50.8594V56.0625C129.562 57.875 127.688 59.7969 125.625 61.8281C123.562 63.8281 121.422 65.7031 119.203 67.4531C117.016 69.2031 114.844 70.625 112.688 71.7188C110.562 72.8125 108.562 73.3594 106.688 73.3594ZM149.344 73.3594C147.719 73.3594 146.688 72.9375 146.25 72.0938C145.812 71.25 145.594 70.4844 145.594 69.7969C145.594 67.2969 145.938 64.7656 146.625 62.2031C147.344 59.6406 148.172 57.1875 149.109 54.8438C150.047 52.5 150.859 50.375 151.547 48.4688C152.266 46.5625 152.625 45.0312 152.625 43.875C152.625 43.0625 152.438 42.4375 152.062 42C151.688 41.5312 151.266 41.2969 150.797 41.2969C149.266 41.2969 147.719 42.1094 146.156 43.7344C144.594 45.3594 143.078 47.4531 141.609 50.0156C140.172 52.5781 138.844 55.2812 137.625 58.125C136.438 60.9688 135.422 63.6406 134.578 66.1406C133.766 68.6094 133.188 70.5625 132.844 72H123.891C123.922 70.5625 124.125 68.6875 124.5 66.375C124.844 64.0625 125.312 61.5625 125.906 58.875C126.531 56.1562 127.188 53.4531 127.875 50.7656C128.562 48.0781 129.25 45.6094 129.938 43.3594C130.625 41.0781 131.234 39.2656 131.766 37.9219C132.391 36.2656 133.312 35.2344 134.531 34.8281C135.75 34.3906 137.172 34.1719 138.797 34.1719H141.938C141.938 34.1719 141.75 34.7969 141.375 36.0469C141.031 37.2969 140.578 38.8594 140.016 40.7344C139.484 42.6094 138.922 44.5 138.328 46.4062C137.766 48.2812 137.281 49.875 136.875 51.1875C137.812 49.4375 139.062 47.5 140.625 45.375C142.219 43.25 144.016 41.2188 146.016 39.2812C148.016 37.3438 150.109 35.75 152.297 34.5C154.484 33.25 156.641 32.625 158.766 32.625C161.828 32.625 163.359 34.4531 163.359 38.1094C163.359 39.0781 163.141 40.4062 162.703 42.0938C162.266 43.7812 161.719 45.625 161.062 47.625C160.406 49.5938 159.734 51.5469 159.047 53.4844C158.391 55.3906 157.844 57.0781 157.406 58.5469C156.969 59.9844 156.75 60.9844 156.75 61.5469C156.75 62.1094 156.938 62.3906 157.312 62.3906C157.719 62.3906 158.266 62.1719 158.953 61.7344C159.359 61.4531 160.047 60.875 161.016 60C161.984 59.0938 163.047 58.0781 164.203 56.9531C165.391 55.8281 166.5 54.7656 167.531 53.7656C168.594 52.7656 169.406 52.0312 169.969 51.5625V56.8125C169.219 57.5625 168.156 58.6094 166.781 59.9531C165.406 61.2656 163.875 62.7031 162.188 64.2656C160.5 65.7969 158.812 67.25 157.125 68.625C155.469 70 153.938 71.125 152.531 72C151.156 72.9062 150.094 73.3594 149.344 73.3594ZM171.844 73.3594C169.875 73.3594 168.359 72.7031 167.297 71.3906C166.266 70.0781 165.562 68.5 165.188 66.6562C164.812 64.8125 164.625 63.0781 164.625 61.4531C164.625 57.9844 165.438 54.5469 167.062 51.1406C168.719 47.7344 170.984 44.6406 173.859 41.8594C176.734 39.0469 180.031 36.8125 183.75 35.1562C187.5 33.4688 191.453 32.625 195.609 32.625C197.016 32.625 198.344 32.7812 199.594 33.0938C200.844 33.375 202.141 33.7344 203.484 34.1719C203.422 34.5469 203.203 35.5625 202.828 37.2188C202.453 38.8438 202.016 40.7969 201.516 43.0781C201.016 45.3594 200.516 47.6719 200.016 50.0156C199.547 52.3594 199.141 54.4688 198.797 56.3438C198.484 58.1875 198.328 59.5 198.328 60.2812C198.328 62.2812 198.797 63.2812 199.734 63.2812C200.578 63.2812 201.719 62.7031 203.156 61.5469C204.625 60.3906 206.297 58.8594 208.172 56.9531C210.047 55.0469 212.016 52.9531 214.078 50.6719V56.0625C213.328 56.9688 212.234 58.1406 210.797 59.5781C209.391 60.9844 207.797 62.4844 206.016 64.0781C204.234 65.6719 202.438 67.1719 200.625 68.5781C198.844 69.9844 197.172 71.125 195.609 72C194.078 72.9062 192.844 73.3594 191.906 73.3594C190.5 73.3594 189.547 72.7344 189.047 71.4844C188.578 70.2031 188.344 68.7812 188.344 67.2188C188.344 66.4062 188.375 65.6094 188.438 64.8281C188.531 64.0156 188.625 63.2969 188.719 62.6719C187.438 64.3281 185.906 65.9844 184.125 67.6406C182.344 69.2969 180.406 70.6719 178.312 71.7656C176.219 72.8281 174.062 73.3594 171.844 73.3594ZM179.203 65.8594C180.172 65.8594 181.266 65.5 182.484 64.7812C183.734 64.0625 184.969 63.1875 186.188 62.1562C187.406 61.125 188.438 60.1562 189.281 59.25L194.672 36.1875C192.047 36.1875 189.531 36.8906 187.125 38.2969C184.719 39.7031 182.578 41.5469 180.703 43.8281C178.828 46.0781 177.344 48.5312 176.25 51.1875C175.156 53.8125 174.609 56.3594 174.609 58.8281C174.609 60.6406 174.938 62.2656 175.594 63.7031C176.281 65.1406 177.484 65.8594 179.203 65.8594ZM200.953 92.2969C202.641 86.3906 204.094 80.3438 205.312 74.1562C206.5 67.9688 207.781 61.8125 209.156 55.6875C210.562 49.5625 212.359 43.6406 214.547 37.9219C215.234 36.1406 216.141 35.0781 217.266 34.7344C218.422 34.3594 219.859 34.1719 221.578 34.1719H224.719C223.094 39.8281 221.406 45.5 219.656 51.1875C220.5 49.4688 221.656 47.5625 223.125 45.4688C224.625 43.3438 226.312 41.3125 228.188 39.375C230.094 37.4062 232.109 35.7969 234.234 34.5469C236.359 33.2656 238.469 32.625 240.562 32.625C242.719 32.625 244.266 33.2969 245.203 34.6406C246.141 35.9844 246.609 37.6875 246.609 39.75C246.609 41.8125 246.219 44.0938 245.438 46.5938C244.656 49.0938 243.609 51.5781 242.297 54.0469C241.016 56.4844 239.562 58.7031 237.938 60.7031C236.344 62.6719 234.719 64.1719 233.062 65.2031C233.844 65.2031 234.75 65.0938 235.781 64.875C236.812 64.625 238.109 64.0312 239.672 63.0938C241.266 62.125 243.25 60.5781 245.625 58.4531C248 56.2969 250.922 53.2969 254.391 49.4531V54.8438C251.078 58.5 248.016 61.6719 245.203 64.3594C242.422 67.0156 239.578 69.0781 236.672 70.5469C233.766 72.0156 230.484 72.75 226.828 72.75C225.734 72.75 225 72.5 224.625 72C224.25 71.4688 224.062 70.7812 224.062 69.9375C224.062 69.0938 224.469 68.1719 225.281 67.1719C226.094 66.1406 226.938 65.125 227.812 64.125C229 62.75 230.234 60.9062 231.516 58.5938C232.828 56.2812 233.922 53.9062 234.797 51.4688C235.703 49.0312 236.156 46.9219 236.156 45.1406C236.156 43.9531 235.906 43.0156 235.406 42.3281C234.938 41.6406 234.156 41.2969 233.062 41.2969C231.219 41.2969 229.484 42.0781 227.859 43.6406C226.234 45.1719 224.719 47.2344 223.312 49.8281C221.906 52.3906 220.594 55.2656 219.375 58.4531C218.188 61.6094 217.094 64.8125 216.094 68.0625L214.828 72.0938C213.578 76.375 212.484 80.3281 211.547 83.9531C210.641 87.5781 209.922 90.3594 209.391 92.2969H200.953Z" fill="black"/>
</svg>
