<svg width="1440" height="1024" viewBox="0 0 1440 1024" fill="none" xmlns="http://www.w3.org/2000/svg">
<rect width="1440" height="1024" fill="white"/>
<rect x="236" y="203" width="968" height="648" rx="40" fill="#FBE4A6"/>
<mask id="path-2-inside-1_3313_82" fill="white">
<path d="M379 348H1061V705H379V348Z"/>
</mask>
<path d="M379 348H1061V705H379V348Z" fill="white"/>
<path d="M379 348V347H378V348H379ZM1061 348H1062V347H1061V348ZM1061 705V706H1062V705H1061ZM379 705H378V706H379V705ZM379 349H1061V347H379V349ZM1060 348V705H1062V348H1060ZM1061 704H379V706H1061V704ZM380 705V348H378V705H380Z" fill="#D9D9D9" mask="url(#path-2-inside-1_3313_82)"/>
<path d="M404.409 389V377.364H411.432V378.614H405.818V382.545H411.068V383.795H405.818V387.75H411.523V389H404.409ZM413.79 389V380.273H415.085V381.636H415.199C415.381 381.17 415.674 380.809 416.08 380.551C416.485 380.29 416.972 380.159 417.54 380.159C418.116 380.159 418.595 380.29 418.977 380.551C419.364 380.809 419.665 381.17 419.881 381.636H419.972C420.195 381.186 420.53 380.828 420.977 380.562C421.424 380.294 421.96 380.159 422.585 380.159C423.366 380.159 424.004 380.403 424.5 380.892C424.996 381.377 425.244 382.133 425.244 383.159V389H423.903V383.159C423.903 382.515 423.727 382.055 423.375 381.778C423.023 381.502 422.608 381.364 422.131 381.364C421.517 381.364 421.042 381.549 420.705 381.92C420.367 382.288 420.199 382.754 420.199 383.318V389H418.835V383.023C418.835 382.527 418.674 382.127 418.352 381.824C418.03 381.517 417.616 381.364 417.108 381.364C416.759 381.364 416.434 381.456 416.131 381.642C415.831 381.828 415.589 382.085 415.403 382.415C415.222 382.741 415.131 383.117 415.131 383.545V389H413.79ZM430.264 389.205C429.711 389.205 429.209 389.1 428.759 388.892C428.308 388.68 427.95 388.375 427.685 387.977C427.42 387.576 427.287 387.091 427.287 386.523C427.287 386.023 427.385 385.617 427.582 385.307C427.779 384.992 428.043 384.746 428.372 384.568C428.702 384.39 429.065 384.258 429.463 384.17C429.865 384.08 430.268 384.008 430.673 383.955C431.204 383.886 431.634 383.835 431.963 383.801C432.296 383.763 432.539 383.701 432.69 383.614C432.846 383.527 432.923 383.375 432.923 383.159V383.114C432.923 382.553 432.77 382.117 432.463 381.807C432.16 381.496 431.7 381.341 431.082 381.341C430.442 381.341 429.94 381.481 429.577 381.761C429.213 382.042 428.957 382.341 428.81 382.659L427.537 382.205C427.764 381.674 428.067 381.261 428.446 380.966C428.829 380.667 429.245 380.458 429.696 380.341C430.151 380.22 430.598 380.159 431.037 380.159C431.317 380.159 431.639 380.193 432.003 380.261C432.37 380.326 432.724 380.46 433.065 380.665C433.41 380.869 433.696 381.178 433.923 381.591C434.151 382.004 434.264 382.557 434.264 383.25V389H432.923V387.818H432.855C432.764 388.008 432.613 388.21 432.401 388.426C432.188 388.642 431.906 388.826 431.554 388.977C431.202 389.129 430.772 389.205 430.264 389.205ZM430.469 388C430.999 388 431.446 387.896 431.81 387.688C432.177 387.479 432.454 387.21 432.639 386.881C432.829 386.551 432.923 386.205 432.923 385.841V384.614C432.866 384.682 432.741 384.744 432.548 384.801C432.359 384.854 432.139 384.902 431.889 384.943C431.643 384.981 431.402 385.015 431.168 385.045C430.937 385.072 430.749 385.095 430.605 385.114C430.257 385.159 429.931 385.233 429.628 385.335C429.329 385.434 429.086 385.583 428.901 385.784C428.719 385.981 428.628 386.25 428.628 386.591C428.628 387.057 428.8 387.409 429.145 387.648C429.493 387.883 429.935 388 430.469 388ZM436.712 389V380.273H438.053V389H436.712ZM437.393 378.818C437.132 378.818 436.907 378.729 436.717 378.551C436.532 378.373 436.439 378.159 436.439 377.909C436.439 377.659 436.532 377.445 436.717 377.267C436.907 377.089 437.132 377 437.393 377C437.655 377 437.878 377.089 438.064 377.267C438.253 377.445 438.348 377.659 438.348 377.909C438.348 378.159 438.253 378.373 438.064 378.551C437.878 378.729 437.655 378.818 437.393 378.818ZM441.849 377.364V389H440.509V377.364H441.849Z" fill="#1E1E1E"/>
<path d="M403 410C403 405.582 406.582 402 411 402H1029C1033.42 402 1037 405.582 1037 410V434C1037 438.418 1033.42 442 1029 442H411C406.582 442 403 438.418 403 434V410Z" fill="white"/>
<path d="M411 402.5H1029V401.5H411V402.5ZM1036.5 410V434H1037.5V410H1036.5ZM1029 441.5H411V442.5H1029V441.5ZM403.5 434V410H402.5V434H403.5ZM411 441.5C406.858 441.5 403.5 438.142 403.5 434H402.5C402.5 438.694 406.306 442.5 411 442.5V441.5ZM1036.5 434C1036.5 438.142 1033.14 441.5 1029 441.5V442.5C1033.69 442.5 1037.5 438.694 1037.5 434H1036.5ZM1029 402.5C1033.14 402.5 1036.5 405.858 1036.5 410H1037.5C1037.5 405.306 1033.69 401.5 1029 401.5V402.5ZM411 401.5C406.306 401.5 402.5 405.306 402.5 410H403.5C403.5 405.858 406.858 402.5 411 402.5V401.5Z" fill="#D9D9D9"/>
<path d="M420.886 416.364L424.341 426.159H424.477L427.932 416.364H429.409L425.136 428H423.682L419.409 416.364H420.886ZM432.795 428.205C432.242 428.205 431.741 428.1 431.29 427.892C430.839 427.68 430.481 427.375 430.216 426.977C429.951 426.576 429.818 426.091 429.818 425.523C429.818 425.023 429.917 424.617 430.114 424.307C430.311 423.992 430.574 423.746 430.903 423.568C431.233 423.39 431.597 423.258 431.994 423.17C432.396 423.08 432.799 423.008 433.205 422.955C433.735 422.886 434.165 422.835 434.494 422.801C434.828 422.763 435.07 422.701 435.222 422.614C435.377 422.527 435.455 422.375 435.455 422.159V422.114C435.455 421.553 435.301 421.117 434.994 420.807C434.691 420.496 434.231 420.341 433.614 420.341C432.973 420.341 432.472 420.481 432.108 420.761C431.744 421.042 431.489 421.341 431.341 421.659L430.068 421.205C430.295 420.674 430.598 420.261 430.977 419.966C431.36 419.667 431.777 419.458 432.227 419.341C432.682 419.22 433.129 419.159 433.568 419.159C433.848 419.159 434.17 419.193 434.534 419.261C434.902 419.326 435.256 419.46 435.597 419.665C435.941 419.869 436.227 420.178 436.455 420.591C436.682 421.004 436.795 421.557 436.795 422.25V428H435.455V426.818H435.386C435.295 427.008 435.144 427.21 434.932 427.426C434.72 427.642 434.438 427.826 434.085 427.977C433.733 428.129 433.303 428.205 432.795 428.205ZM433 427C433.53 427 433.977 426.896 434.341 426.688C434.708 426.479 434.985 426.21 435.17 425.881C435.36 425.551 435.455 425.205 435.455 424.841V423.614C435.398 423.682 435.273 423.744 435.08 423.801C434.89 423.854 434.67 423.902 434.42 423.943C434.174 423.981 433.934 424.015 433.699 424.045C433.468 424.072 433.28 424.095 433.136 424.114C432.788 424.159 432.462 424.233 432.159 424.335C431.86 424.434 431.617 424.583 431.432 424.784C431.25 424.981 431.159 425.25 431.159 425.591C431.159 426.057 431.331 426.409 431.676 426.648C432.025 426.883 432.466 427 433 427ZM440.584 416.364V428H439.243V416.364H440.584ZM448.54 424.432V419.273H449.881V428H448.54V426.523H448.449C448.244 426.966 447.926 427.343 447.494 427.653C447.063 427.96 446.517 428.114 445.858 428.114C445.312 428.114 444.828 427.994 444.403 427.756C443.979 427.513 443.646 427.15 443.403 426.665C443.161 426.176 443.04 425.561 443.04 424.818V419.273H444.381V424.727C444.381 425.364 444.559 425.871 444.915 426.25C445.275 426.629 445.733 426.818 446.29 426.818C446.623 426.818 446.962 426.733 447.307 426.562C447.655 426.392 447.947 426.131 448.182 425.778C448.42 425.426 448.54 424.977 448.54 424.432ZM455.996 428.182C455.155 428.182 454.429 427.996 453.82 427.625C453.214 427.25 452.746 426.727 452.416 426.057C452.09 425.383 451.928 424.598 451.928 423.705C451.928 422.811 452.09 422.023 452.416 421.341C452.746 420.655 453.204 420.121 453.791 419.739C454.382 419.352 455.071 419.159 455.859 419.159C456.314 419.159 456.763 419.235 457.206 419.386C457.649 419.538 458.053 419.784 458.416 420.125C458.78 420.462 459.07 420.909 459.286 421.466C459.501 422.023 459.609 422.708 459.609 423.523V424.091H452.882V422.932H458.246C458.246 422.439 458.147 422 457.95 421.614C457.757 421.227 457.481 420.922 457.121 420.699C456.765 420.475 456.344 420.364 455.859 420.364C455.325 420.364 454.863 420.496 454.473 420.761C454.087 421.023 453.789 421.364 453.581 421.784C453.373 422.205 453.268 422.655 453.268 423.136V423.909C453.268 424.568 453.382 425.127 453.609 425.585C453.84 426.04 454.161 426.386 454.57 426.625C454.979 426.86 455.454 426.977 455.996 426.977C456.348 426.977 456.666 426.928 456.95 426.83C457.238 426.727 457.486 426.576 457.695 426.375C457.903 426.17 458.064 425.917 458.178 425.614L459.473 425.977C459.337 426.417 459.107 426.803 458.786 427.136C458.464 427.466 458.066 427.723 457.592 427.909C457.119 428.091 456.587 428.182 455.996 428.182Z" fill="#B3B3B3"/>
<path d="M404.409 483V471.364H408.341C409.254 471.364 410 471.528 410.58 471.858C411.163 472.184 411.595 472.625 411.875 473.182C412.155 473.739 412.295 474.36 412.295 475.045C412.295 475.731 412.155 476.354 411.875 476.915C411.598 477.475 411.17 477.922 410.591 478.256C410.011 478.585 409.269 478.75 408.364 478.75H405.545V477.5H408.318C408.943 477.5 409.445 477.392 409.824 477.176C410.203 476.96 410.477 476.669 410.648 476.301C410.822 475.93 410.909 475.511 410.909 475.045C410.909 474.58 410.822 474.163 410.648 473.795C410.477 473.428 410.201 473.14 409.818 472.932C409.436 472.72 408.928 472.614 408.295 472.614H405.818V483H404.409ZM416.952 483.205C416.399 483.205 415.897 483.1 415.446 482.892C414.995 482.68 414.637 482.375 414.372 481.977C414.107 481.576 413.974 481.091 413.974 480.523C413.974 480.023 414.073 479.617 414.27 479.307C414.467 478.992 414.73 478.746 415.06 478.568C415.389 478.39 415.753 478.258 416.151 478.17C416.552 478.08 416.955 478.008 417.361 477.955C417.891 477.886 418.321 477.835 418.651 477.801C418.984 477.763 419.226 477.701 419.378 477.614C419.533 477.527 419.611 477.375 419.611 477.159V477.114C419.611 476.553 419.457 476.117 419.151 475.807C418.848 475.496 418.387 475.341 417.77 475.341C417.13 475.341 416.628 475.481 416.264 475.761C415.901 476.042 415.645 476.341 415.497 476.659L414.224 476.205C414.452 475.674 414.755 475.261 415.134 474.966C415.516 474.667 415.933 474.458 416.384 474.341C416.838 474.22 417.285 474.159 417.724 474.159C418.005 474.159 418.327 474.193 418.69 474.261C419.058 474.326 419.412 474.46 419.753 474.665C420.098 474.869 420.384 475.178 420.611 475.591C420.838 476.004 420.952 476.557 420.952 477.25V483H419.611V481.818H419.543C419.452 482.008 419.3 482.21 419.088 482.426C418.876 482.642 418.594 482.826 418.241 482.977C417.889 483.129 417.459 483.205 416.952 483.205ZM417.156 482C417.687 482 418.134 481.896 418.497 481.688C418.865 481.479 419.141 481.21 419.327 480.881C419.516 480.551 419.611 480.205 419.611 479.841V478.614C419.554 478.682 419.429 478.744 419.236 478.801C419.046 478.854 418.827 478.902 418.577 478.943C418.33 478.981 418.09 479.015 417.855 479.045C417.624 479.072 417.437 479.095 417.293 479.114C416.944 479.159 416.618 479.233 416.315 479.335C416.016 479.434 415.774 479.583 415.588 479.784C415.406 479.981 415.315 480.25 415.315 480.591C415.315 481.057 415.488 481.409 415.832 481.648C416.181 481.883 416.622 482 417.156 482ZM429.581 476.227L428.376 476.568C428.301 476.367 428.189 476.172 428.041 475.983C427.897 475.79 427.7 475.631 427.45 475.506C427.2 475.381 426.88 475.318 426.49 475.318C425.956 475.318 425.511 475.441 425.155 475.688C424.803 475.93 424.626 476.239 424.626 476.614C424.626 476.947 424.748 477.21 424.99 477.403C425.232 477.597 425.611 477.758 426.126 477.886L427.422 478.205C428.202 478.394 428.784 478.684 429.166 479.074C429.549 479.46 429.74 479.958 429.74 480.568C429.74 481.068 429.596 481.515 429.308 481.909C429.024 482.303 428.626 482.614 428.115 482.841C427.604 483.068 427.009 483.182 426.331 483.182C425.441 483.182 424.704 482.989 424.121 482.602C423.537 482.216 423.168 481.652 423.013 480.909L424.286 480.591C424.407 481.061 424.636 481.413 424.973 481.648C425.314 481.883 425.759 482 426.308 482C426.933 482 427.429 481.867 427.797 481.602C428.168 481.333 428.354 481.011 428.354 480.636C428.354 480.333 428.248 480.08 428.036 479.875C427.823 479.667 427.498 479.511 427.058 479.409L425.604 479.068C424.804 478.879 424.217 478.585 423.842 478.188C423.471 477.786 423.286 477.284 423.286 476.682C423.286 476.189 423.424 475.754 423.7 475.375C423.981 474.996 424.361 474.699 424.842 474.483C425.327 474.267 425.876 474.159 426.49 474.159C427.354 474.159 428.032 474.348 428.524 474.727C429.02 475.106 429.373 475.606 429.581 476.227ZM437.94 476.227L436.736 476.568C436.66 476.367 436.548 476.172 436.401 475.983C436.257 475.79 436.06 475.631 435.81 475.506C435.56 475.381 435.24 475.318 434.849 475.318C434.315 475.318 433.87 475.441 433.514 475.688C433.162 475.93 432.986 476.239 432.986 476.614C432.986 476.947 433.107 477.21 433.349 477.403C433.592 477.597 433.971 477.758 434.486 477.886L435.781 478.205C436.562 478.394 437.143 478.684 437.526 479.074C437.908 479.46 438.099 479.958 438.099 480.568C438.099 481.068 437.955 481.515 437.668 481.909C437.384 482.303 436.986 482.614 436.474 482.841C435.963 483.068 435.368 483.182 434.69 483.182C433.8 483.182 433.063 482.989 432.48 482.602C431.897 482.216 431.527 481.652 431.372 480.909L432.645 480.591C432.766 481.061 432.995 481.413 433.332 481.648C433.673 481.883 434.118 482 434.668 482C435.293 482 435.789 481.867 436.156 481.602C436.527 481.333 436.713 481.011 436.713 480.636C436.713 480.333 436.607 480.08 436.395 479.875C436.183 479.667 435.857 479.511 435.418 479.409L433.963 479.068C433.164 478.879 432.577 478.585 432.202 478.188C431.83 477.786 431.645 477.284 431.645 476.682C431.645 476.189 431.783 475.754 432.06 475.375C432.34 474.996 432.721 474.699 433.202 474.483C433.687 474.267 434.236 474.159 434.849 474.159C435.713 474.159 436.391 474.348 436.884 474.727C437.38 475.106 437.732 475.606 437.94 476.227ZM442.095 483L439.436 474.273H440.845L442.732 480.955H442.822L444.686 474.273H446.118L447.959 480.932H448.05L449.936 474.273H451.345L448.686 483H447.368L445.459 476.295H445.322L443.413 483H442.095ZM456.366 483.182C455.579 483.182 454.887 482.994 454.293 482.619C453.702 482.244 453.24 481.72 452.906 481.045C452.577 480.371 452.412 479.583 452.412 478.682C452.412 477.773 452.577 476.979 452.906 476.301C453.24 475.623 453.702 475.097 454.293 474.722C454.887 474.347 455.579 474.159 456.366 474.159C457.154 474.159 457.844 474.347 458.435 474.722C459.029 475.097 459.491 475.623 459.821 476.301C460.154 476.979 460.321 477.773 460.321 478.682C460.321 479.583 460.154 480.371 459.821 481.045C459.491 481.72 459.029 482.244 458.435 482.619C457.844 482.994 457.154 483.182 456.366 483.182ZM456.366 481.977C456.965 481.977 457.457 481.824 457.844 481.517C458.23 481.21 458.516 480.807 458.702 480.307C458.887 479.807 458.98 479.265 458.98 478.682C458.98 478.098 458.887 477.555 458.702 477.051C458.516 476.547 458.23 476.14 457.844 475.83C457.457 475.519 456.965 475.364 456.366 475.364C455.768 475.364 455.276 475.519 454.889 475.83C454.503 476.14 454.217 476.547 454.031 477.051C453.846 477.555 453.753 478.098 453.753 478.682C453.753 479.265 453.846 479.807 454.031 480.307C454.217 480.807 454.503 481.21 454.889 481.517C455.276 481.824 455.768 481.977 456.366 481.977ZM462.368 483V474.273H463.663V475.591H463.754C463.913 475.159 464.201 474.809 464.618 474.54C465.035 474.271 465.504 474.136 466.027 474.136C466.125 474.136 466.249 474.138 466.396 474.142C466.544 474.146 466.656 474.152 466.732 474.159V475.523C466.686 475.511 466.582 475.494 466.419 475.472C466.26 475.445 466.091 475.432 465.913 475.432C465.489 475.432 465.11 475.521 464.777 475.699C464.447 475.873 464.186 476.116 463.993 476.426C463.804 476.733 463.709 477.083 463.709 477.477V483H462.368ZM471.351 483.182C470.624 483.182 469.982 482.998 469.425 482.631C468.868 482.259 468.432 481.737 468.118 481.062C467.804 480.384 467.646 479.583 467.646 478.659C467.646 477.742 467.804 476.947 468.118 476.273C468.432 475.598 468.87 475.078 469.43 474.71C469.991 474.343 470.639 474.159 471.374 474.159C471.942 474.159 472.391 474.254 472.72 474.443C473.054 474.629 473.307 474.841 473.482 475.08C473.66 475.314 473.798 475.508 473.896 475.659H474.01V471.364H475.351V483H474.055V481.659H473.896C473.798 481.818 473.658 482.019 473.476 482.261C473.294 482.5 473.035 482.714 472.697 482.903C472.36 483.089 471.911 483.182 471.351 483.182ZM471.533 481.977C472.071 481.977 472.525 481.837 472.896 481.557C473.268 481.273 473.55 480.881 473.743 480.381C473.936 479.877 474.033 479.295 474.033 478.636C474.033 477.985 473.938 477.415 473.749 476.926C473.559 476.434 473.279 476.051 472.908 475.778C472.536 475.502 472.078 475.364 471.533 475.364C470.964 475.364 470.491 475.509 470.112 475.801C469.737 476.089 469.455 476.481 469.266 476.977C469.08 477.47 468.987 478.023 468.987 478.636C468.987 479.258 469.082 479.822 469.271 480.33C469.464 480.833 469.749 481.235 470.124 481.534C470.502 481.83 470.972 481.977 471.533 481.977Z" fill="#1E1E1E"/>
<path d="M403 504C403 499.582 406.582 496 411 496H1029C1033.42 496 1037 499.582 1037 504V528C1037 532.418 1033.42 536 1029 536H411C406.582 536 403 532.418 403 528V504Z" fill="white"/>
<path d="M411 496.5H1029V495.5H411V496.5ZM1036.5 504V528H1037.5V504H1036.5ZM1029 535.5H411V536.5H1029V535.5ZM403.5 528V504H402.5V528H403.5ZM411 535.5C406.858 535.5 403.5 532.142 403.5 528H402.5C402.5 532.694 406.306 536.5 411 536.5V535.5ZM1036.5 528C1036.5 532.142 1033.14 535.5 1029 535.5V536.5C1033.69 536.5 1037.5 532.694 1037.5 528H1036.5ZM1029 496.5C1033.14 496.5 1036.5 499.858 1036.5 504H1037.5C1037.5 499.306 1033.69 495.5 1029 495.5V496.5ZM411 495.5C406.306 495.5 402.5 499.306 402.5 504H403.5C403.5 499.858 406.858 496.5 411 496.5V495.5Z" fill="#D9D9D9"/>
<path d="M420.886 510.364L424.341 520.159H424.477L427.932 510.364H429.409L425.136 522H423.682L419.409 510.364H420.886ZM432.795 522.205C432.242 522.205 431.741 522.1 431.29 521.892C430.839 521.68 430.481 521.375 430.216 520.977C429.951 520.576 429.818 520.091 429.818 519.523C429.818 519.023 429.917 518.617 430.114 518.307C430.311 517.992 430.574 517.746 430.903 517.568C431.233 517.39 431.597 517.258 431.994 517.17C432.396 517.08 432.799 517.008 433.205 516.955C433.735 516.886 434.165 516.835 434.494 516.801C434.828 516.763 435.07 516.701 435.222 516.614C435.377 516.527 435.455 516.375 435.455 516.159V516.114C435.455 515.553 435.301 515.117 434.994 514.807C434.691 514.496 434.231 514.341 433.614 514.341C432.973 514.341 432.472 514.481 432.108 514.761C431.744 515.042 431.489 515.341 431.341 515.659L430.068 515.205C430.295 514.674 430.598 514.261 430.977 513.966C431.36 513.667 431.777 513.458 432.227 513.341C432.682 513.22 433.129 513.159 433.568 513.159C433.848 513.159 434.17 513.193 434.534 513.261C434.902 513.326 435.256 513.46 435.597 513.665C435.941 513.869 436.227 514.178 436.455 514.591C436.682 515.004 436.795 515.557 436.795 516.25V522H435.455V520.818H435.386C435.295 521.008 435.144 521.21 434.932 521.426C434.72 521.642 434.438 521.826 434.085 521.977C433.733 522.129 433.303 522.205 432.795 522.205ZM433 521C433.53 521 433.977 520.896 434.341 520.688C434.708 520.479 434.985 520.21 435.17 519.881C435.36 519.551 435.455 519.205 435.455 518.841V517.614C435.398 517.682 435.273 517.744 435.08 517.801C434.89 517.854 434.67 517.902 434.42 517.943C434.174 517.981 433.934 518.015 433.699 518.045C433.468 518.072 433.28 518.095 433.136 518.114C432.788 518.159 432.462 518.233 432.159 518.335C431.86 518.434 431.617 518.583 431.432 518.784C431.25 518.981 431.159 519.25 431.159 519.591C431.159 520.057 431.331 520.409 431.676 520.648C432.025 520.883 432.466 521 433 521ZM440.584 510.364V522H439.243V510.364H440.584ZM448.54 518.432V513.273H449.881V522H448.54V520.523H448.449C448.244 520.966 447.926 521.343 447.494 521.653C447.063 521.96 446.517 522.114 445.858 522.114C445.312 522.114 444.828 521.994 444.403 521.756C443.979 521.513 443.646 521.15 443.403 520.665C443.161 520.176 443.04 519.561 443.04 518.818V513.273H444.381V518.727C444.381 519.364 444.559 519.871 444.915 520.25C445.275 520.629 445.733 520.818 446.29 520.818C446.623 520.818 446.962 520.733 447.307 520.562C447.655 520.392 447.947 520.131 448.182 519.778C448.42 519.426 448.54 518.977 448.54 518.432ZM455.996 522.182C455.155 522.182 454.429 521.996 453.82 521.625C453.214 521.25 452.746 520.727 452.416 520.057C452.09 519.383 451.928 518.598 451.928 517.705C451.928 516.811 452.09 516.023 452.416 515.341C452.746 514.655 453.204 514.121 453.791 513.739C454.382 513.352 455.071 513.159 455.859 513.159C456.314 513.159 456.763 513.235 457.206 513.386C457.649 513.538 458.053 513.784 458.416 514.125C458.78 514.462 459.07 514.909 459.286 515.466C459.501 516.023 459.609 516.708 459.609 517.523V518.091H452.882V516.932H458.246C458.246 516.439 458.147 516 457.95 515.614C457.757 515.227 457.481 514.922 457.121 514.699C456.765 514.475 456.344 514.364 455.859 514.364C455.325 514.364 454.863 514.496 454.473 514.761C454.087 515.023 453.789 515.364 453.581 515.784C453.373 516.205 453.268 516.655 453.268 517.136V517.909C453.268 518.568 453.382 519.127 453.609 519.585C453.84 520.04 454.161 520.386 454.57 520.625C454.979 520.86 455.454 520.977 455.996 520.977C456.348 520.977 456.666 520.928 456.95 520.83C457.238 520.727 457.486 520.576 457.695 520.375C457.903 520.17 458.064 519.917 458.178 519.614L459.473 519.977C459.337 520.417 459.107 520.803 458.786 521.136C458.464 521.466 458.066 521.723 457.592 521.909C457.119 522.091 456.587 522.182 455.996 522.182Z" fill="#B3B3B3"/>
<mask id="path-12-inside-2_3313_82" fill="white">
<path d="M403 568C403 563.582 406.582 560 411 560H1029C1033.42 560 1037 563.582 1037 568V592C1037 596.418 1033.42 600 1029 600H411C406.582 600 403 596.418 403 592V568Z"/>
</mask>
<path d="M403 568C403 563.582 406.582 560 411 560H1029C1033.42 560 1037 563.582 1037 568V592C1037 596.418 1033.42 600 1029 600H411C406.582 600 403 596.418 403 592V568Z" fill="#2C2C2C"/>
<path d="M411 561H1029V559H411V561ZM1036 568V592H1038V568H1036ZM1029 599H411V601H1029V599ZM404 592V568H402V592H404ZM411 599C407.134 599 404 595.866 404 592H402C402 596.971 406.029 601 411 601V599ZM1036 592C1036 595.866 1032.87 599 1029 599V601C1033.97 601 1038 596.971 1038 592H1036ZM1029 561C1032.87 561 1036 564.134 1036 568H1038C1038 563.029 1033.97 559 1029 559V561ZM411 559C406.029 559 402 563.029 402 568H404C404 564.134 407.134 561 411 561V559Z" fill="#2C2C2C" mask="url(#path-12-inside-2_3313_82)"/>
<path d="M701.773 577.273C701.705 576.697 701.428 576.25 700.943 575.932C700.458 575.614 699.864 575.455 699.159 575.455C698.644 575.455 698.193 575.538 697.807 575.705C697.424 575.871 697.125 576.1 696.909 576.392C696.697 576.684 696.591 577.015 696.591 577.386C696.591 577.697 696.665 577.964 696.812 578.188C696.964 578.407 697.157 578.591 697.392 578.739C697.627 578.883 697.873 579.002 698.131 579.097C698.388 579.187 698.625 579.261 698.841 579.318L700.023 579.636C700.326 579.716 700.663 579.826 701.034 579.966C701.409 580.106 701.767 580.297 702.108 580.54C702.453 580.778 702.737 581.085 702.96 581.46C703.184 581.835 703.295 582.295 703.295 582.841C703.295 583.47 703.131 584.038 702.801 584.545C702.475 585.053 701.998 585.456 701.369 585.756C700.744 586.055 699.985 586.205 699.091 586.205C698.258 586.205 697.536 586.07 696.926 585.801C696.32 585.532 695.843 585.157 695.494 584.676C695.15 584.195 694.955 583.636 694.909 583H696.364C696.402 583.439 696.549 583.803 696.807 584.091C697.068 584.375 697.398 584.587 697.795 584.727C698.197 584.864 698.629 584.932 699.091 584.932C699.629 584.932 700.112 584.845 700.54 584.67C700.968 584.492 701.307 584.246 701.557 583.932C701.807 583.614 701.932 583.242 701.932 582.818C701.932 582.432 701.824 582.117 701.608 581.875C701.392 581.633 701.108 581.436 700.756 581.284C700.403 581.133 700.023 581 699.614 580.886L698.182 580.477C697.273 580.216 696.553 579.843 696.023 579.358C695.492 578.873 695.227 578.239 695.227 577.455C695.227 576.803 695.403 576.235 695.756 575.75C696.112 575.261 696.589 574.883 697.188 574.614C697.79 574.341 698.462 574.205 699.205 574.205C699.955 574.205 700.621 574.339 701.205 574.608C701.788 574.873 702.25 575.237 702.591 575.699C702.936 576.161 703.117 576.686 703.136 577.273H701.773ZM705.43 586V577.273H706.771V586H705.43ZM706.112 575.818C705.851 575.818 705.625 575.729 705.436 575.551C705.25 575.373 705.158 575.159 705.158 574.909C705.158 574.659 705.25 574.445 705.436 574.267C705.625 574.089 705.851 574 706.112 574C706.374 574 706.597 574.089 706.783 574.267C706.972 574.445 707.067 574.659 707.067 574.909C707.067 575.159 706.972 575.373 706.783 575.551C706.597 575.729 706.374 575.818 706.112 575.818ZM712.75 589.455C712.102 589.455 711.545 589.371 711.08 589.205C710.614 589.042 710.225 588.826 709.915 588.557C709.608 588.292 709.364 588.008 709.182 587.705L710.25 586.955C710.371 587.114 710.525 587.295 710.71 587.5C710.896 587.708 711.15 587.888 711.472 588.04C711.797 588.195 712.223 588.273 712.75 588.273C713.455 588.273 714.036 588.102 714.494 587.761C714.953 587.42 715.182 586.886 715.182 586.159V584.386H715.068C714.97 584.545 714.83 584.742 714.648 584.977C714.47 585.208 714.212 585.415 713.875 585.597C713.542 585.775 713.091 585.864 712.523 585.864C711.818 585.864 711.186 585.697 710.625 585.364C710.068 585.03 709.627 584.545 709.301 583.909C708.979 583.273 708.818 582.5 708.818 581.591C708.818 580.697 708.975 579.919 709.29 579.256C709.604 578.589 710.042 578.074 710.602 577.71C711.163 577.343 711.811 577.159 712.545 577.159C713.114 577.159 713.564 577.254 713.898 577.443C714.235 577.629 714.492 577.841 714.67 578.08C714.852 578.314 714.992 578.508 715.091 578.659H715.227V577.273H716.523V586.25C716.523 587 716.352 587.61 716.011 588.08C715.674 588.553 715.22 588.9 714.648 589.119C714.08 589.343 713.447 589.455 712.75 589.455ZM712.705 584.659C713.242 584.659 713.697 584.536 714.068 584.29C714.439 584.044 714.722 583.689 714.915 583.227C715.108 582.765 715.205 582.212 715.205 581.568C715.205 580.939 715.11 580.384 714.92 579.903C714.731 579.422 714.451 579.045 714.08 578.773C713.708 578.5 713.25 578.364 712.705 578.364C712.136 578.364 711.663 578.508 711.284 578.795C710.909 579.083 710.627 579.47 710.438 579.955C710.252 580.439 710.159 580.977 710.159 581.568C710.159 582.174 710.254 582.71 710.443 583.176C710.636 583.638 710.92 584.002 711.295 584.267C711.674 584.528 712.144 584.659 712.705 584.659ZM720.318 580.75V586H718.977V577.273H720.273V578.636H720.386C720.591 578.193 720.902 577.837 721.318 577.568C721.735 577.295 722.273 577.159 722.932 577.159C723.523 577.159 724.04 577.28 724.483 577.523C724.926 577.761 725.271 578.125 725.517 578.614C725.763 579.098 725.886 579.712 725.886 580.455V586H724.545V580.545C724.545 579.86 724.367 579.326 724.011 578.943C723.655 578.557 723.167 578.364 722.545 578.364C722.117 578.364 721.735 578.456 721.398 578.642C721.064 578.828 720.801 579.098 720.608 579.455C720.415 579.811 720.318 580.242 720.318 580.75ZM734.428 574.364V586H733.018V574.364H734.428ZM738.412 580.75V586H737.071V577.273H738.366V578.636H738.48C738.685 578.193 738.995 577.837 739.412 577.568C739.829 577.295 740.366 577.159 741.026 577.159C741.616 577.159 742.134 577.28 742.577 577.523C743.02 577.761 743.365 578.125 743.611 578.614C743.857 579.098 743.98 579.712 743.98 580.455V586H742.639V580.545C742.639 579.86 742.461 579.326 742.105 578.943C741.749 578.557 741.26 578.364 740.639 578.364C740.211 578.364 739.829 578.456 739.491 578.642C739.158 578.828 738.895 579.098 738.702 579.455C738.509 579.811 738.412 580.242 738.412 580.75Z" fill="#F5F5F5"/>
<path d="M404.409 641V629.364H411.386V630.614H405.818V634.545H410.864V635.795H405.818V641H404.409ZM416.523 641.182C415.735 641.182 415.044 640.994 414.449 640.619C413.858 640.244 413.396 639.72 413.062 639.045C412.733 638.371 412.568 637.583 412.568 636.682C412.568 635.773 412.733 634.979 413.062 634.301C413.396 633.623 413.858 633.097 414.449 632.722C415.044 632.347 415.735 632.159 416.523 632.159C417.311 632.159 418 632.347 418.591 632.722C419.186 633.097 419.648 633.623 419.977 634.301C420.311 634.979 420.477 635.773 420.477 636.682C420.477 637.583 420.311 638.371 419.977 639.045C419.648 639.72 419.186 640.244 418.591 640.619C418 640.994 417.311 641.182 416.523 641.182ZM416.523 639.977C417.121 639.977 417.614 639.824 418 639.517C418.386 639.21 418.672 638.807 418.858 638.307C419.044 637.807 419.136 637.265 419.136 636.682C419.136 636.098 419.044 635.555 418.858 635.051C418.672 634.547 418.386 634.14 418 633.83C417.614 633.519 417.121 633.364 416.523 633.364C415.924 633.364 415.432 633.519 415.045 633.83C414.659 634.14 414.373 634.547 414.188 635.051C414.002 635.555 413.909 636.098 413.909 636.682C413.909 637.265 414.002 637.807 414.188 638.307C414.373 638.807 414.659 639.21 415.045 639.517C415.432 639.824 415.924 639.977 416.523 639.977ZM422.524 641V632.273H423.82V633.591H423.911C424.07 633.159 424.357 632.809 424.774 632.54C425.191 632.271 425.661 632.136 426.183 632.136C426.282 632.136 426.405 632.138 426.553 632.142C426.7 632.146 426.812 632.152 426.888 632.159V633.523C426.842 633.511 426.738 633.494 426.575 633.472C426.416 633.445 426.248 633.432 426.07 633.432C425.645 633.432 425.267 633.521 424.933 633.699C424.604 633.873 424.342 634.116 424.149 634.426C423.96 634.733 423.865 635.083 423.865 635.477V641H422.524ZM431.734 644.455C431.087 644.455 430.53 644.371 430.064 644.205C429.598 644.042 429.21 643.826 428.899 643.557C428.592 643.292 428.348 643.008 428.166 642.705L429.234 641.955C429.356 642.114 429.509 642.295 429.695 642.5C429.88 642.708 430.134 642.888 430.456 643.04C430.782 643.195 431.208 643.273 431.734 643.273C432.439 643.273 433.02 643.102 433.479 642.761C433.937 642.42 434.166 641.886 434.166 641.159V639.386H434.053C433.954 639.545 433.814 639.742 433.632 639.977C433.454 640.208 433.196 640.415 432.859 640.597C432.526 640.775 432.075 640.864 431.507 640.864C430.803 640.864 430.17 640.697 429.609 640.364C429.053 640.03 428.611 639.545 428.286 638.909C427.964 638.273 427.803 637.5 427.803 636.591C427.803 635.697 427.96 634.919 428.274 634.256C428.589 633.589 429.026 633.074 429.587 632.71C430.147 632.343 430.795 632.159 431.53 632.159C432.098 632.159 432.549 632.254 432.882 632.443C433.219 632.629 433.477 632.841 433.655 633.08C433.837 633.314 433.977 633.508 434.075 633.659H434.212V632.273H435.507V641.25C435.507 642 435.337 642.61 434.996 643.08C434.659 643.553 434.204 643.9 433.632 644.119C433.064 644.343 432.431 644.455 431.734 644.455ZM431.689 639.659C432.227 639.659 432.681 639.536 433.053 639.29C433.424 639.044 433.706 638.689 433.899 638.227C434.092 637.765 434.189 637.212 434.189 636.568C434.189 635.939 434.094 635.384 433.905 634.903C433.715 634.422 433.435 634.045 433.064 633.773C432.693 633.5 432.234 633.364 431.689 633.364C431.121 633.364 430.647 633.508 430.268 633.795C429.893 634.083 429.611 634.47 429.422 634.955C429.236 635.439 429.143 635.977 429.143 636.568C429.143 637.174 429.238 637.71 429.428 638.176C429.621 638.638 429.905 639.002 430.28 639.267C430.659 639.528 431.128 639.659 431.689 639.659ZM441.507 641.182C440.719 641.182 440.028 640.994 439.433 640.619C438.842 640.244 438.38 639.72 438.047 639.045C437.717 638.371 437.553 637.583 437.553 636.682C437.553 635.773 437.717 634.979 438.047 634.301C438.38 633.623 438.842 633.097 439.433 632.722C440.028 632.347 440.719 632.159 441.507 632.159C442.295 632.159 442.984 632.347 443.575 632.722C444.17 633.097 444.632 633.623 444.962 634.301C445.295 634.979 445.462 635.773 445.462 636.682C445.462 637.583 445.295 638.371 444.962 639.045C444.632 639.72 444.17 640.244 443.575 640.619C442.984 640.994 442.295 641.182 441.507 641.182ZM441.507 639.977C442.106 639.977 442.598 639.824 442.984 639.517C443.371 639.21 443.657 638.807 443.842 638.307C444.028 637.807 444.121 637.265 444.121 636.682C444.121 636.098 444.028 635.555 443.842 635.051C443.657 634.547 443.371 634.14 442.984 633.83C442.598 633.519 442.106 633.364 441.507 633.364C440.909 633.364 440.416 633.519 440.03 633.83C439.643 634.14 439.357 634.547 439.172 635.051C438.986 635.555 438.893 636.098 438.893 636.682C438.893 637.265 438.986 637.807 439.172 638.307C439.357 638.807 439.643 639.21 440.03 639.517C440.416 639.824 440.909 639.977 441.507 639.977ZM451.304 632.273V633.409H446.781V632.273H451.304ZM448.099 630.182H449.44V638.5C449.44 638.879 449.495 639.163 449.605 639.352C449.719 639.538 449.863 639.663 450.037 639.727C450.215 639.788 450.402 639.818 450.599 639.818C450.747 639.818 450.868 639.811 450.963 639.795C451.058 639.777 451.134 639.761 451.19 639.75L451.463 640.955C451.372 640.989 451.245 641.023 451.082 641.057C450.92 641.095 450.713 641.114 450.463 641.114C450.084 641.114 449.713 641.032 449.349 640.869C448.99 640.706 448.69 640.458 448.452 640.125C448.217 639.792 448.099 639.371 448.099 638.864V630.182ZM457.821 644.273V632.273H459.116V633.659H459.276C459.374 633.508 459.51 633.314 459.685 633.08C459.863 632.841 460.116 632.629 460.446 632.443C460.779 632.254 461.23 632.159 461.798 632.159C462.533 632.159 463.181 632.343 463.741 632.71C464.302 633.078 464.74 633.598 465.054 634.273C465.368 634.947 465.526 635.742 465.526 636.659C465.526 637.583 465.368 638.384 465.054 639.062C464.74 639.737 464.304 640.259 463.747 640.631C463.19 640.998 462.548 641.182 461.821 641.182C461.26 641.182 460.812 641.089 460.474 640.903C460.137 640.714 459.878 640.5 459.696 640.261C459.514 640.019 459.374 639.818 459.276 639.659H459.162V644.273H457.821ZM459.139 636.636C459.139 637.295 459.236 637.877 459.429 638.381C459.622 638.881 459.904 639.273 460.276 639.557C460.647 639.837 461.101 639.977 461.639 639.977C462.2 639.977 462.668 639.83 463.043 639.534C463.421 639.235 463.705 638.833 463.895 638.33C464.088 637.822 464.185 637.258 464.185 636.636C464.185 636.023 464.09 635.47 463.901 634.977C463.715 634.481 463.433 634.089 463.054 633.801C462.679 633.509 462.207 633.364 461.639 633.364C461.094 633.364 460.635 633.502 460.264 633.778C459.893 634.051 459.613 634.434 459.423 634.926C459.234 635.415 459.139 635.985 459.139 636.636ZM470.139 641.205C469.586 641.205 469.084 641.1 468.634 640.892C468.183 640.68 467.825 640.375 467.56 639.977C467.295 639.576 467.162 639.091 467.162 638.523C467.162 638.023 467.26 637.617 467.457 637.307C467.654 636.992 467.918 636.746 468.247 636.568C468.577 636.39 468.94 636.258 469.338 636.17C469.74 636.08 470.143 636.008 470.548 635.955C471.079 635.886 471.509 635.835 471.838 635.801C472.171 635.763 472.414 635.701 472.565 635.614C472.721 635.527 472.798 635.375 472.798 635.159V635.114C472.798 634.553 472.645 634.117 472.338 633.807C472.035 633.496 471.575 633.341 470.957 633.341C470.317 633.341 469.815 633.481 469.452 633.761C469.088 634.042 468.832 634.341 468.685 634.659L467.412 634.205C467.639 633.674 467.942 633.261 468.321 632.966C468.704 632.667 469.12 632.458 469.571 632.341C470.026 632.22 470.473 632.159 470.912 632.159C471.192 632.159 471.514 632.193 471.878 632.261C472.245 632.326 472.599 632.46 472.94 632.665C473.285 632.869 473.571 633.178 473.798 633.591C474.026 634.004 474.139 634.557 474.139 635.25V641H472.798V639.818H472.73C472.639 640.008 472.488 640.21 472.276 640.426C472.063 640.642 471.781 640.826 471.429 640.977C471.077 641.129 470.647 641.205 470.139 641.205ZM470.344 640C470.874 640 471.321 639.896 471.685 639.688C472.052 639.479 472.329 639.21 472.514 638.881C472.704 638.551 472.798 638.205 472.798 637.841V636.614C472.741 636.682 472.616 636.744 472.423 636.801C472.234 636.854 472.014 636.902 471.764 636.943C471.518 636.981 471.277 637.015 471.043 637.045C470.812 637.072 470.624 637.095 470.48 637.114C470.132 637.159 469.806 637.233 469.503 637.335C469.204 637.434 468.961 637.583 468.776 637.784C468.594 637.981 468.503 638.25 468.503 638.591C468.503 639.057 468.675 639.409 469.02 639.648C469.368 639.883 469.81 640 470.344 640ZM482.768 634.227L481.564 634.568C481.488 634.367 481.376 634.172 481.229 633.983C481.085 633.79 480.888 633.631 480.638 633.506C480.388 633.381 480.068 633.318 479.678 633.318C479.143 633.318 478.698 633.441 478.342 633.688C477.99 633.93 477.814 634.239 477.814 634.614C477.814 634.947 477.935 635.21 478.178 635.403C478.42 635.597 478.799 635.758 479.314 635.886L480.609 636.205C481.39 636.394 481.971 636.684 482.354 637.074C482.736 637.46 482.928 637.958 482.928 638.568C482.928 639.068 482.784 639.515 482.496 639.909C482.212 640.303 481.814 640.614 481.303 640.841C480.791 641.068 480.196 641.182 479.518 641.182C478.628 641.182 477.892 640.989 477.308 640.602C476.725 640.216 476.356 639.652 476.2 638.909L477.473 638.591C477.594 639.061 477.823 639.413 478.161 639.648C478.501 639.883 478.946 640 479.496 640C480.121 640 480.617 639.867 480.984 639.602C481.356 639.333 481.541 639.011 481.541 638.636C481.541 638.333 481.435 638.08 481.223 637.875C481.011 637.667 480.685 637.511 480.246 637.409L478.791 637.068C477.992 636.879 477.405 636.585 477.03 636.188C476.659 635.786 476.473 635.284 476.473 634.682C476.473 634.189 476.611 633.754 476.888 633.375C477.168 632.996 477.549 632.699 478.03 632.483C478.515 632.267 479.064 632.159 479.678 632.159C480.541 632.159 481.219 632.348 481.712 632.727C482.208 633.106 482.56 633.606 482.768 634.227ZM491.128 634.227L489.923 634.568C489.848 634.367 489.736 634.172 489.588 633.983C489.444 633.79 489.247 633.631 488.997 633.506C488.747 633.381 488.427 633.318 488.037 633.318C487.503 633.318 487.058 633.441 486.702 633.688C486.349 633.93 486.173 634.239 486.173 634.614C486.173 634.947 486.295 635.21 486.537 635.403C486.779 635.597 487.158 635.758 487.673 635.886L488.969 636.205C489.749 636.394 490.33 636.684 490.713 637.074C491.096 637.46 491.287 637.958 491.287 638.568C491.287 639.068 491.143 639.515 490.855 639.909C490.571 640.303 490.173 640.614 489.662 640.841C489.151 641.068 488.556 641.182 487.878 641.182C486.988 641.182 486.251 640.989 485.668 640.602C485.084 640.216 484.715 639.652 484.56 638.909L485.832 638.591C485.954 639.061 486.183 639.413 486.52 639.648C486.861 639.883 487.306 640 487.855 640C488.48 640 488.976 639.867 489.344 639.602C489.715 639.333 489.901 639.011 489.901 638.636C489.901 638.333 489.795 638.08 489.582 637.875C489.37 637.667 489.045 637.511 488.605 637.409L487.151 637.068C486.351 636.879 485.764 636.585 485.389 636.188C485.018 635.786 484.832 635.284 484.832 634.682C484.832 634.189 484.971 633.754 485.247 633.375C485.527 632.996 485.908 632.699 486.389 632.483C486.874 632.267 487.423 632.159 488.037 632.159C488.901 632.159 489.579 632.348 490.071 632.727C490.567 633.106 490.92 633.606 491.128 634.227ZM495.283 641L492.624 632.273H494.033L495.919 638.955H496.01L497.874 632.273H499.305L501.146 638.932H501.237L503.124 632.273H504.533L501.874 641H500.555L498.646 634.295H498.51L496.601 641H495.283ZM509.554 641.182C508.766 641.182 508.075 640.994 507.48 640.619C506.889 640.244 506.427 639.72 506.094 639.045C505.764 638.371 505.599 637.583 505.599 636.682C505.599 635.773 505.764 634.979 506.094 634.301C506.427 633.623 506.889 633.097 507.48 632.722C508.075 632.347 508.766 632.159 509.554 632.159C510.342 632.159 511.031 632.347 511.622 632.722C512.217 633.097 512.679 633.623 513.009 634.301C513.342 634.979 513.509 635.773 513.509 636.682C513.509 637.583 513.342 638.371 513.009 639.045C512.679 639.72 512.217 640.244 511.622 640.619C511.031 640.994 510.342 641.182 509.554 641.182ZM509.554 639.977C510.152 639.977 510.645 639.824 511.031 639.517C511.418 639.21 511.704 638.807 511.889 638.307C512.075 637.807 512.168 637.265 512.168 636.682C512.168 636.098 512.075 635.555 511.889 635.051C511.704 634.547 511.418 634.14 511.031 633.83C510.645 633.519 510.152 633.364 509.554 633.364C508.955 633.364 508.463 633.519 508.077 633.83C507.69 634.14 507.404 634.547 507.219 635.051C507.033 635.555 506.94 636.098 506.94 636.682C506.94 637.265 507.033 637.807 507.219 638.307C507.404 638.807 507.69 639.21 508.077 639.517C508.463 639.824 508.955 639.977 509.554 639.977ZM515.555 641V632.273H516.851V633.591H516.942C517.101 633.159 517.389 632.809 517.805 632.54C518.222 632.271 518.692 632.136 519.214 632.136C519.313 632.136 519.436 632.138 519.584 632.142C519.732 632.146 519.843 632.152 519.919 632.159V633.523C519.874 633.511 519.769 633.494 519.607 633.472C519.447 633.445 519.279 633.432 519.101 633.432C518.677 633.432 518.298 633.521 517.964 633.699C517.635 633.873 517.374 634.116 517.18 634.426C516.991 634.733 516.896 635.083 516.896 635.477V641H515.555ZM524.538 641.182C523.811 641.182 523.169 640.998 522.612 640.631C522.055 640.259 521.62 639.737 521.305 639.062C520.991 638.384 520.834 637.583 520.834 636.659C520.834 635.742 520.991 634.947 521.305 634.273C521.62 633.598 522.057 633.078 522.618 632.71C523.179 632.343 523.826 632.159 524.561 632.159C525.129 632.159 525.578 632.254 525.908 632.443C526.241 632.629 526.495 632.841 526.669 633.08C526.847 633.314 526.985 633.508 527.084 633.659H527.197V629.364H528.538V641H527.243V639.659H527.084C526.985 639.818 526.845 640.019 526.663 640.261C526.482 640.5 526.222 640.714 525.885 640.903C525.548 641.089 525.099 641.182 524.538 641.182ZM524.72 639.977C525.258 639.977 525.713 639.837 526.084 639.557C526.455 639.273 526.737 638.881 526.93 638.381C527.124 637.877 527.22 637.295 527.22 636.636C527.22 635.985 527.125 635.415 526.936 634.926C526.747 634.434 526.466 634.051 526.095 633.778C525.724 633.502 525.266 633.364 524.72 633.364C524.152 633.364 523.679 633.509 523.3 633.801C522.925 634.089 522.643 634.481 522.453 634.977C522.268 635.47 522.175 636.023 522.175 636.636C522.175 637.258 522.269 637.822 522.459 638.33C522.652 638.833 522.936 639.235 523.311 639.534C523.69 639.83 524.16 639.977 524.72 639.977ZM532.93 637.727V637.659C532.938 636.936 533.014 636.36 533.158 635.932C533.302 635.504 533.506 635.157 533.771 634.892C534.036 634.627 534.355 634.383 534.726 634.159C534.949 634.023 535.15 633.862 535.328 633.676C535.506 633.487 535.646 633.269 535.749 633.023C535.855 632.777 535.908 632.504 535.908 632.205C535.908 631.833 535.821 631.511 535.646 631.239C535.472 630.966 535.239 630.756 534.947 630.608C534.656 630.46 534.332 630.386 533.976 630.386C533.665 630.386 533.366 630.451 533.078 630.58C532.79 630.708 532.55 630.911 532.357 631.188C532.163 631.464 532.052 631.826 532.021 632.273H530.589C530.62 631.629 530.786 631.078 531.089 630.619C531.396 630.161 531.8 629.811 532.3 629.568C532.804 629.326 533.362 629.205 533.976 629.205C534.643 629.205 535.222 629.337 535.714 629.602C536.211 629.867 536.593 630.231 536.862 630.693C537.135 631.155 537.271 631.682 537.271 632.273C537.271 632.689 537.207 633.066 537.078 633.403C536.953 633.741 536.771 634.042 536.533 634.307C536.298 634.572 536.014 634.807 535.68 635.011C535.347 635.22 535.08 635.439 534.879 635.67C534.679 635.898 534.533 636.169 534.442 636.483C534.351 636.797 534.302 637.189 534.294 637.659V637.727H532.93ZM533.658 641.091C533.377 641.091 533.137 640.991 532.936 640.79C532.735 640.589 532.635 640.348 532.635 640.068C532.635 639.788 532.735 639.547 532.936 639.347C533.137 639.146 533.377 639.045 533.658 639.045C533.938 639.045 534.179 639.146 534.379 639.347C534.58 639.547 534.68 639.788 534.68 640.068C534.68 640.254 534.633 640.424 534.538 640.58C534.447 640.735 534.324 640.86 534.169 640.955C534.018 641.045 533.847 641.091 533.658 641.091Z" fill="#1E1E1E"/>
<path d="M403 644.182H538.067V645.273H403V644.182Z" fill="#1E1E1E"/>
</svg>
